<?xml version="1.0" encoding="utf-8"?>
<svg width="2048" height="2048" viewBox="0 0 2048 2048" fill="none" xmlns="http://www.w3.org/2000/svg">
  <defs>
    <linearGradient id="gradient_1" gradientUnits="userSpaceOnUse" x1="0" y1="0" x2="1968.75" y2="1968.75">
      <stop offset="0" stop-color="#333333" />
      <stop offset="1" stop-color="#111111" />
    </linearGradient>
    <linearGradient id="gradient_2" gradientUnits="userSpaceOnUse" x1="0" y1="0" x2="436.373" y2="0">
      <stop offset="0" stop-color="#0070F3" />
      <stop offset="0.6" stop-color="#00DFD8" />
      <stop offset="1" stop-color="#50E3C2" />
    </linearGradient>
  </defs>
  <g>
    <g transform="translate(24 24)">
      <g>
        <path d="M0 1000C0 1000 0 500 0 500C0 361.929 48.8155 244.078 146.447 146.447C244.078 48.8155 361.929 0 500 0C500 0 1500 0 1500 0C1638.07 0 1755.92 48.8155 1853.55 146.447C1951.18 244.078 2000 361.929 2000 500C2000 500 2000 1500 2000 1500C2000 1638.07 1951.18 1755.92 1853.55 1853.55C1755.92 1951.18 1638.07 2000 1500 2000C1500 2000 500 2000 500 2000C361.929 2000 244.078 1951.18 146.447 1853.55C48.8155 1755.92 0 1638.07 0 1500C0 1500 0 1000 0 1000Z" fill="#000000" fill-rule="evenodd" />
        <path d="M0 968.75C0 968.75 0 484.375 0 484.375C0 350.619 47.29 236.45 141.87 141.87C236.45 47.29 350.619 0 484.375 0C484.375 0 1484.38 0 1484.38 0C1618.13 0 1732.3 47.29 1826.88 141.87C1921.46 236.45 1968.75 350.619 1968.75 484.375C1968.75 484.375 1968.75 1484.38 1968.75 1484.38C1968.75 1618.13 1921.46 1732.3 1826.88 1826.88C1732.3 1921.46 1618.13 1968.75 1484.38 1968.75C1484.38 1968.75 484.375 1968.75 484.375 1968.75C350.619 1968.75 236.45 1921.46 141.87 1826.88C47.29 1732.3 0 1618.13 0 1484.38C0 1484.38 0 968.75 0 968.75Z" fill="none" stroke-width="4" stroke="url(#gradient_1)" transform="translate(15.625 15.625)" />
        <path d="M414.063 195.313C414.063 195.313 687.5 0 687.5 0C687.5 0 828.125 468.75 828.125 468.75C828.125 781.25 640.625 976.563 414.063 976.563C187.5 976.563 0 781.25 0 468.75C0 468.75 140.625 0 140.625 0C140.625 0 414.063 195.313 414.063 195.313Z" fill="#0A0A0A" stroke-width="70" stroke="#FFFFFF" stroke-linejoin="round" transform="translate(585.938 507.813)" />
        <path d="M0 156.25C39.424 61.6327 131.873 0 234.375 0C336.877 0 429.326 61.6327 468.75 156.25" fill="none" stroke-width="70" stroke="#C9C9C9" stroke-linecap="round" transform="translate(765.625 1074.219)" />
        <path d="M6.6853 311.704C-19.3008 200.53 32.1131 85.6819 132.344 31.0106C232.575 -23.6607 356.97 -4.70911 436.373 77.3294" fill="none" stroke-width="60" stroke="url(#gradient_2)" stroke-linecap="round" transform="translate(758.94 918.764)" />
        <line x1="0" y1="273.438" x2="195.313" y2="0" fill="none" stroke-width="70" stroke="#FFFFFF" stroke-linecap="round" transform="translate(1000 957.031)" />
        <path d="M0 46.875C0 20.9867 20.9866 0 46.875 0C72.7633 0 93.75 20.9867 93.75 46.875C93.75 72.7633 72.7633 93.75 46.875 93.75C20.9866 93.75 0 72.7633 0 46.875Z" fill="#FFFFFF" fill-rule="evenodd" transform="translate(953.125 1183.594)" />
        <path d="M0 19.5313C0 8.74438 8.74445 0 19.5313 0C30.3181 0 39.0625 8.74438 39.0625 19.5313C39.0625 30.3181 30.3181 39.0625 19.5313 39.0625C8.74445 39.0625 0 30.3181 0 19.5313Z" fill="#0070F3" fill-rule="evenodd" transform="translate(980.469 1210.938)" />
      </g>
    </g>
  </g>
</svg>